<?xml version="1.0" encoding="UTF-8"?>
<svg id="Layer_2" data-name="Layer 2" xmlns="http://www.w3.org/2000/svg" viewBox="0 0 303.84 230.47">
  <defs>
    <style>
      .cls-1, .cls-2 {
        stroke-width: 0px;
      }

      .cls-2 {
        fill: #5d87bc;
      }
    </style>
  </defs>
  <path class="cls-1" d="m151.92,0C68.02,0,0,68.02,0,151.92c0,28.75,7.99,55.62,21.86,78.54h260.13c13.87-22.92,21.86-49.8,21.86-78.54C303.84,68.02,235.82,0,151.92,0Z"/>
  <path class="cls-2" d="m264.32,193.74c-1.7,0-3.21.04-4.71-.04-.31-.02-.71-.44-.89-.77-.82-1.55-1.53-3.16-2.37-4.69-.21-.38-.7-.74-1.12-.84-.95-.24-1.47.11-1.41,1.24.09,1.63.02,3.26.02,5h-4.72v-18.71c3.48.2,6.91.23,10.28.64,2.09.26,3.7,1.6,4.06,3.84.39,2.43.14,4.74-2.22,6.22-.62.39-.66.75-.34,1.36.94,1.76,1.83,3.54,2.74,5.32.21.41.39.84.67,1.43Zm-10.47-12.58q0,2.63,2.62,2.39c.24-.02.47-.05.71-.1,1.09-.23,1.62-.95,1.68-2.02.09-1.54-.86-2.45-2.67-2.47-2.82-.04-2.27-.23-2.33,2.2Z"/>
  <path class="cls-2" d="m161.33,175.13c1.45,0,2.72,0,3.99,0,.9,0,.74.65.75,1.18,0,5.07,0,10.14,0,15.2,0,.71,0,1.41,0,2.17h-4.74c0-1.9,0-3.79,0-5.69q0-1.86-1.87-1.86c-1.08,0-2.16.05-3.23-.01-.92-.05-1.17.33-1.15,1.19.05,2.1.02,4.21.02,6.38h-4.71v-18.48h4.71c0,1.91,0,3.77,0,5.62q0,1.57,1.57,1.57c1.24,0,2.48-.02,3.71,0,.73.02.98-.27.97-.99-.03-2.03-.01-4.06-.01-6.28Z"/>
  <path class="cls-2" d="m43.74,193.7h-4.61v-18.56c1.37,0,2.76-.03,4.14.04.17,0,.44.58.45.9.05,1.71.06,3.43,0,5.15-.03.9.32,1.21,1.19,1.17,1.32-.05,2.64-.05,3.96,0,.88.03,1.21-.29,1.19-1.19-.05-1.98-.01-3.97-.01-6.03h4.61v18.46h-4.61c0-2.05-.05-4.08.02-6.1.04-1.09-.28-1.57-1.42-1.44-.63.07-1.28.01-1.92.01q-2.99,0-2.99,3.05c0,1.47,0,2.94,0,4.52Z"/>
  <path class="cls-2" d="m79.4,193.75c-1.33,0-2.5-.1-3.64.03-1.22.14-1.8-.36-1.91-1.49-.14-1.42-.91-1.85-2.26-1.68-.86.11-1.77.13-2.63,0-1.34-.2-1.94.4-2.06,1.62-.13,1.32-.85,1.67-2.09,1.55-1.1-.11-2.23-.02-3.53-.02.14-.48.23-.85.36-1.2,1.99-5.43,4.01-10.84,5.98-16.28.29-.82.68-1.19,1.59-1.23,3.26-.15,3.28-.19,4.42,2.82,1.85,4.93,3.67,9.87,5.49,14.81.11.29.16.6.28,1.07Zm-7.29-7.09c-.56-1.79-1.07-3.44-1.58-5.09-.12.01-.24.02-.36.04-.5,1.64-1.01,3.28-1.55,5.06h3.49Z"/>
  <path class="cls-2" d="m128.12,187.59c1.38,0,2.69-.04,4,.04.25.01.58.45.68.75.57,1.66,2.95,2.5,4.45,1.53.87-.56.96-1.77.09-2.43-.59-.45-1.32-.73-2-1.04-1.44-.67-2.96-1.21-4.33-2-1.77-1.01-2.63-2.64-2.48-4.71.14-2.03,1.41-3.22,3.14-4.03,3.27-1.54,7.84-.84,9.9,1.48.84.94,1.22,2.03,1.12,3.37h-4.53c-.87-1.79-2.12-2.41-3.69-1.67-.47.22-1,.78-1.08,1.25-.06.38.42,1.06.83,1.27,1.09.57,2.28.94,3.41,1.45.91.41,1.82.82,2.66,1.35,2.04,1.31,2.74,3.28,2.36,5.6-.35,2.21-1.9,3.33-3.96,3.81-3.26.76-6.36.55-9-1.76-1.22-1.06-1.72-2.51-1.56-4.25Z"/>
  <path class="cls-2" d="m271.06,187.59c1.41,0,2.76-.03,4.1.03.22.01.51.41.61.69.61,1.71,2.83,2.55,4.41,1.63.98-.57,1.1-1.75.15-2.48-.59-.45-1.32-.72-2-1.04-1.44-.67-2.96-1.21-4.33-2-1.76-1.02-2.6-2.64-2.45-4.72.14-2.05,1.39-3.31,3.15-4,2.95-1.16,5.93-1.28,8.72.48,1.53.96,2.38,2.4,2.28,4.46-1.4,0-2.75.03-4.09-.03-.24-.01-.55-.37-.69-.63-.75-1.4-2.92-1.82-4.11-.76-.71.64-.72,1.45.12,2.01.65.44,1.42.71,2.14,1.04,1.41.65,2.9,1.16,4.21,1.96,2.01,1.22,2.72,3.18,2.38,5.47-.34,2.27-1.89,3.46-3.99,3.93-3.24.73-6.37.55-9-1.8-1.18-1.06-1.7-2.45-1.61-4.22Z"/>
  <path class="cls-2" d="m108.65,175.06c1.25,0,2.47,0,3.69,0,2.67.02,5.35.07,8.02.05.81,0,1.18.2,1.12,1.07-.06.86-.01,1.73-.01,2.73-2.36,0-4.58.06-6.8-.03-1.14-.05-1.54.36-1.38,1.43,0,.04,0,.08,0,.12q0,1.96,1.91,1.96c1.59,0,3.18,0,4.86,0v3.64c-1.92,0-3.79.03-5.65-.02-.81-.02-1.15.2-1.13,1.06.08,3.47-.43,2.76,2.7,2.83,1.68.04,3.35.01,5.03.02.08,0,.15.04.34.09v3.65h-12.7v-18.62Z"/>
  <path class="cls-2" d="m90.75,193.68h-4.64v-18.74c3.49.2,6.97-.02,10.26.68,4.58.98,6.08,6.77,2.88,10.05-1.13,1.15-2.57,1.71-4.16,1.88-.63.07-1.27.09-1.91.09q-2.36.03-2.36,2.33c0,1.08,0,2.15,0,3.23,0,.12-.03.23-.07.48Zm1.91-9.8c.44-.02.88,0,1.31-.07,1.8-.27,2.62-1.79,1.86-3.44-.58-1.25-2.59-1.97-4.44-1.39-1.1.35-.36,1.44-.54,2.17-.08.3-.01.63-.01.95q0,1.77,1.83,1.78Z"/>
  <path class="cls-2" d="m229.22,175.13c3.31,0,6.5,0,9.68,0,.08,0,.16,0,.24,0,3.22.04,3.43.32,2.76,3.79-2.19,0-4.42.07-6.64-.03-1.2-.05-1.6.38-1.44,1.5.04.27.03.56,0,.84-.09.88.28,1.21,1.17,1.19,1.87-.05,3.73-.01,5.67-.01v3.64c-1.94,0-3.81.04-5.67-.02-.89-.03-1.2.27-1.18,1.16.08,3.29-.4,2.69,2.7,2.74,1.75.03,3.5,0,5.38,0v3.75h-12.67v-18.55Z"/>
  <path class="cls-2" d="m199.85,178.93c-2.24,0-4.34.05-6.45-.02-1.03-.03-1.42.26-1.37,1.34.11,2.89-.4,2.42,2.47,2.47,1.4.02,2.79.01,4.19.02.08,0,.15.04.35.09v3.72c-1.92,0-3.83.05-5.73-.02-1-.04-1.32.3-1.28,1.29.07,1.91.02,3.82.02,5.83h-4.65c-.03-.31-.09-.66-.09-1,0-5.42.03-10.85,0-16.27,0-1.01.31-1.28,1.29-1.27,3.39.05,6.78.05,10.17,0,.84-.01,1.15.26,1.09,1.09-.06.86-.01,1.73-.01,2.73Z"/>
  <path class="cls-2" d="m206.28,178.93c0-1.16-.05-2.19.04-3.21.02-.22.52-.57.8-.57,4.67-.04,9.34-.04,14.01,0,.28,0,.76.44.79.71.1.94.04,1.9.04,3.07-1.44,0-2.82.06-4.19-.02-1.06-.06-1.37.31-1.35,1.36.06,4.03.03,8.06.03,12.08,0,.43,0,.85,0,1.33h-4.74c0-.47,0-.93,0-1.39,0-4.07-.02-8.14.02-12.2,0-.88-.26-1.21-1.16-1.17-1.38.06-2.77.02-4.28.02Z"/>
  <path class="cls-2" d="m174.47,175.21c1.36,0,2.63,0,3.9,0,.82,0,.7.59.7,1.09,0,3.27,0,6.54,0,9.8,0,2.5,0,5,0,7.57h-4.6v-18.46Z"/>
  <circle class="cls-2" cx="117.12" cy="104.45" r="1.36"/>
  <circle class="cls-2" cx="119.84" cy="105.81" r="1.36"/>
  <circle class="cls-2" cx="118.48" cy="107.17" r="1.36"/>
  <circle class="cls-2" cx="125.9" cy="103.09" r="1"/>
  <circle class="cls-2" cx="122.07" cy="107.17" r="1.36"/>
  <circle class="cls-2" cx="116.85" cy="106.86" r="1.36"/>
  <circle class="cls-2" cx="119.57" cy="103.09" r="1.36"/>
  <circle class="cls-2" cx="120.25" cy="109.58" r="1.36"/>
  <circle class="cls-2" cx="117.53" cy="109.9" r="1.36"/>
  <circle class="cls-2" cx="122.56" cy="109.58" r="1.36"/>
  <circle class="cls-2" cx="118.61" cy="111.91" r="1.36"/>
  <circle class="cls-2" cx="121.33" cy="113.28" r="1.36"/>
  <circle class="cls-2" cx="119.97" cy="114.64" r="1.36"/>
  <circle class="cls-2" cx="123.56" cy="114.64" r="1.36"/>
  <circle class="cls-2" cx="118.34" cy="114.32" r="1.36"/>
  <circle class="cls-2" cx="121.07" cy="110.55" r="1.36"/>
  <circle class="cls-2" cx="121.74" cy="117.04" r="1.36"/>
  <circle class="cls-2" cx="119.02" cy="117.36" r="1.36"/>
  <circle class="cls-2" cx="124.05" cy="117.04" r="1.36"/>
  <circle class="cls-2" cx="119.1" cy="117.3" r="1.36"/>
  <circle class="cls-2" cx="122.01" cy="118.18" r="1.36"/>
  <circle class="cls-2" cx="120.9" cy="119.75" r="1.36"/>
  <circle class="cls-2" cx="124.44" cy="119.14" r="1.36"/>
  <circle class="cls-2" cx="119.25" cy="119.72" r="1.36"/>
  <circle class="cls-2" cx="123.06" cy="112.3" r="1.36"/>
  <circle class="cls-2" cx="123.06" cy="121.82" r="1.36"/>
  <circle class="cls-2" cx="120.43" cy="122.6" r="1.36"/>
  <circle class="cls-2" cx="125.34" cy="121.43" r="1.36"/>
  <circle class="cls-2" cx="135.43" cy="126.6" r="1.51"/>
  <circle class="cls-2" cx="134.16" cy="124.34" r="1.51"/>
  <circle class="cls-2" cx="132.41" cy="123.11" r="1.51"/>
  <circle class="cls-2" cx="133.1" cy="127.04" r="1.51"/>
  <circle class="cls-2" cx="132.45" cy="121.27" r="1.51"/>
  <circle class="cls-2" cx="130.11" cy="125.5" r="1.51"/>
  <circle class="cls-2" cx="129.26" cy="122.58" r="1.51"/>
  <circle class="cls-2" cx="130.55" cy="128.03" r="1.51"/>
  <circle class="cls-2" cx="119.34" cy="128.38" r="1.36"/>
  <circle class="cls-2" cx="121.17" cy="125.95" r="1.36"/>
  <circle class="cls-2" cx="122.26" cy="127.54" r="1.36"/>
  <circle class="cls-2" cx="122.91" cy="124" r="1.36"/>
  <circle class="cls-2" cx="121.66" cy="129.08" r="1.36"/>
  <circle class="cls-2" cx="118.44" cy="125.72" r="1.36"/>
  <circle class="cls-2" cx="124.95" cy="126.23" r="1.36"/>
  <circle class="cls-2" cx="124.76" cy="128.97" r="1.36"/>
  <circle class="cls-2" cx="125.36" cy="123.96" r="1.36"/>
  <circle class="cls-2" cx="126.94" cy="128.26" r="1.36"/>
  <circle class="cls-2" cx="126.05" cy="125.6" r="1.36"/>
  <circle class="cls-2" cx="129.77" cy="125.28" r="1.51"/>
  <circle class="cls-2" cx="127.66" cy="128.67" r="1.51"/>
  <circle class="cls-2" cx="131.02" cy="123.93" r="1.51"/>
  <circle class="cls-2" cx="135.02" cy="121.07" r="1.51"/>
  <circle class="cls-2" cx="127.76" cy="122.78" r="1.51"/>
  <circle class="cls-2" cx="139.98" cy="123.77" r="1.51"/>
  <circle class="cls-2" cx="121.33" cy="131.85" r="1"/>
  <circle class="cls-2" cx="121.9" cy="133.85" r="1"/>
  <circle class="cls-2" cx="123.69" cy="132.33" r="1"/>
  <circle class="cls-2" cx="125.9" cy="131.97" r="1"/>
  <circle class="cls-2" cx="128.26" cy="131.97" r="1"/>
  <circle class="cls-2" cx="139.46" cy="131.97" r="1"/>
  <circle class="cls-2" cx="137.95" cy="128.41" r="1.51"/>
  <circle class="cls-2" cx="134.61" cy="128.9" r="1.51"/>
  <circle class="cls-2" cx="131.28" cy="128.9" r="1.51"/>
  <circle class="cls-2" cx="138.83" cy="120.68" r="1.36"/>
  <circle class="cls-2" cx="136.95" cy="120.25" r="1.36"/>
  <circle class="cls-2" cx="141.42" cy="123.68" r="1.36"/>
  <circle class="cls-2" cx="140.53" cy="121.97" r="1.36"/>
  <circle class="cls-2" cx="141.15" cy="126.33" r="1.36"/>
  <circle class="cls-2" cx="139.79" cy="127.69" r="1.36"/>
  <circle class="cls-2" cx="160.44" cy="121.62" r="1.36"/>
  <circle class="cls-2" cx="159.27" cy="124.43" r="1.36"/>
  <circle class="cls-2" cx="157.82" cy="123.17" r="1.36"/>
  <circle class="cls-2" cx="162.41" cy="130.29" r="1"/>
  <circle class="cls-2" cx="158.07" cy="126.75" r="1.36"/>
  <circle class="cls-2" cx="158.02" cy="121.52" r="1.36"/>
  <circle class="cls-2" cx="161.97" cy="123.98" r="1.36"/>
  <circle class="cls-2" cx="155.54" cy="125.1" r="1.36"/>
  <circle class="cls-2" cx="155.04" cy="122.41" r="1.36"/>
  <circle class="cls-2" cx="155.7" cy="127.41" r="1.36"/>
  <circle class="cls-2" cx="153.1" cy="123.63" r="1.36"/>
  <circle class="cls-2" cx="151.93" cy="126.44" r="1.36"/>
  <circle class="cls-2" cx="150.48" cy="125.18" r="1.36"/>
  <circle class="cls-2" cx="150.73" cy="128.76" r="1.36"/>
  <circle class="cls-2" cx="150.68" cy="123.53" r="1.36"/>
  <circle class="cls-2" cx="154.63" cy="125.98" r="1.36"/>
  <circle class="cls-2" cx="148.2" cy="127.11" r="1.36"/>
  <circle class="cls-2" cx="147.7" cy="124.42" r="1.36"/>
  <circle class="cls-2" cx="148.36" cy="129.42" r="1.36"/>
  <circle class="cls-2" cx="147.76" cy="124.49" r="1.36"/>
  <circle class="cls-2" cx="147.09" cy="127.46" r="1.36"/>
  <circle class="cls-2" cx="145.44" cy="126.46" r="1.36"/>
  <circle class="cls-2" cx="146.3" cy="129.95" r="1.36"/>
  <circle class="cls-2" cx="145.36" cy="124.81" r="1.36"/>
  <circle class="cls-2" cx="153.02" cy="128.09" r="1.36"/>
  <circle class="cls-2" cx="127.19" cy="104.34" r="1"/>
  <circle class="cls-2" cx="127.53" cy="106.72" r="1"/>
  <circle class="cls-2" cx="128.62" cy="108.67" r="1"/>
  <circle class="cls-2" cx="129.42" cy="110.89" r="1"/>
  <circle class="cls-2" cx="130.4" cy="119.06" r="1"/>
  <circle class="cls-2" cx="130.3" cy="116.65" r="1"/>
  <circle class="cls-2" cx="129.41" cy="114.6" r="1"/>
  <circle class="cls-2" cx="128.84" cy="112.31" r="1"/>
  <circle class="cls-2" cx="130.58" cy="115" r="1"/>
  <circle class="cls-2" cx="128.84" cy="105.72" r="1"/>
  <circle class="cls-2" cx="131.63" cy="118.4" r="1"/>
  <circle class="cls-2" cx="127.84" cy="104.09" r="1"/>
  <circle class="cls-2" cx="132.16" cy="102.74" r="1"/>
  <circle class="cls-2" cx="133.45" cy="103.99" r="1"/>
  <circle class="cls-2" cx="133.79" cy="106.37" r="1"/>
  <circle class="cls-2" cx="134.89" cy="108.32" r="1"/>
  <circle class="cls-2" cx="135.69" cy="110.54" r="1"/>
  <circle class="cls-2" cx="136.67" cy="118.7" r="1"/>
  <circle class="cls-2" cx="136.57" cy="116.3" r="1"/>
  <circle class="cls-2" cx="135.68" cy="114.25" r="1"/>
  <circle class="cls-2" cx="135.11" cy="111.96" r="1"/>
  <circle class="cls-2" cx="136.85" cy="114.64" r="1"/>
  <circle class="cls-2" cx="135.11" cy="105.36" r="1"/>
  <circle class="cls-2" cx="137.89" cy="118.05" r="1"/>
  <circle class="cls-2" cx="134.11" cy="103.74" r="1"/>
  <circle class="cls-2" cx="136.44" cy="112.31" r="1"/>
  <circle class="cls-2" cx="134.68" cy="109.32" r="1"/>
  <circle class="cls-2" cx="179.52" cy="139.14" r="1"/>
  <circle class="cls-2" cx="179.18" cy="141.52" r="1"/>
  <circle class="cls-2" cx="179.68" cy="143.7" r="1"/>
  <circle class="cls-2" cx="179.82" cy="146.06" r="1"/>
  <circle class="cls-2" cx="178.46" cy="154.17" r="1"/>
  <circle class="cls-2" cx="179.04" cy="151.83" r="1"/>
  <circle class="cls-2" cx="178.77" cy="149.61" r="1"/>
  <circle class="cls-2" cx="178.87" cy="147.26" r="1"/>
  <circle class="cls-2" cx="179.78" cy="150.32" r="1"/>
  <circle class="cls-2" cx="180.72" cy="140.93" r="1"/>
  <circle class="cls-2" cx="179.82" cy="153.89" r="1"/>
  <circle class="cls-2" cx="180.22" cy="139.09" r="1"/>
  <circle class="cls-2" cx="180.05" cy="147.97" r="1"/>
  <circle class="cls-2" cx="179.2" cy="144.6" r="1"/>
  <circle class="cls-2" cx="145.54" cy="120.93" r="1.36"/>
  <circle class="cls-2" cx="142.71" cy="119.8" r="1.36"/>
  <circle class="cls-2" cx="143.95" cy="118.33" r="1.36"/>
  <circle class="cls-2" cx="145.6" cy="118.51" r="1.36"/>
  <circle class="cls-2" cx="144.56" cy="128.34" r="1.36"/>
  <circle class="cls-2" cx="141.99" cy="116.08" r="1.36"/>
  <circle class="cls-2" cx="144.68" cy="115.54" r="1.36"/>
  <circle class="cls-2" cx="143.43" cy="113.62" r="1.36"/>
  <circle class="cls-2" cx="141.85" cy="111.02" r="1.36"/>
  <circle class="cls-2" cx="143.49" cy="111.2" r="1.36"/>
  <circle class="cls-2" cx="141.1" cy="115.18" r="1.36"/>
  <circle class="cls-2" cx="142.57" cy="108.23" r="1.36"/>
  <circle class="cls-2" cx="142.49" cy="108.29" r="1.36"/>
  <circle class="cls-2" cx="140.49" cy="106" r="1.36"/>
  <circle class="cls-2" cx="142.15" cy="105.89" r="1.36"/>
  <circle class="cls-2" cx="140.79" cy="103.34" r="1.36"/>
  <circle class="cls-2" cx="139.13" cy="103.09" r="1.36"/>
  <circle class="cls-2" cx="162.92" cy="121.11" r="1.51"/>
  <circle class="cls-2" cx="167.87" cy="123.81" r="1.51"/>
  <circle class="cls-2" cx="164.85" cy="120.29" r="1.36"/>
  <circle class="cls-2" cx="168.43" cy="122.02" r="1.36"/>
  <circle class="cls-2" cx="169.04" cy="126.38" r="1.36"/>
  <circle class="cls-2" cx="162.55" cy="126.89" r="1.51"/>
  <circle class="cls-2" cx="160.21" cy="127.32" r="1.51"/>
  <circle class="cls-2" cx="165.07" cy="128.69" r="1.51"/>
  <circle class="cls-2" cx="161.73" cy="129.18" r="1.51"/>
  <circle class="cls-2" cx="166.9" cy="127.97" r="1.36"/>
  <circle class="cls-2" cx="139.16" cy="125.36" r="1.51"/>
  <circle class="cls-2" cx="137.89" cy="123.1" r="1.51"/>
  <circle class="cls-2" cx="136.83" cy="125.8" r="1.51"/>
  <circle class="cls-2" cx="134.75" cy="122.69" r="1.51"/>
  <circle class="cls-2" cx="167.05" cy="125.42" r="1.51"/>
  <circle class="cls-2" cx="165.79" cy="123.15" r="1.51"/>
  <circle class="cls-2" cx="164.72" cy="125.85" r="1.51"/>
  <circle class="cls-2" cx="162.64" cy="122.74" r="1.51"/>
  <circle class="cls-2" cx="129.95" cy="143.23" r="1"/>
  <circle class="cls-2" cx="128.73" cy="145.3" r="1"/>
  <circle class="cls-2" cx="128.35" cy="147.51" r="1"/>
  <circle class="cls-2" cx="127.58" cy="149.74" r="1"/>
  <circle class="cls-2" cx="124.66" cy="154.78" r="1"/>
  <circle class="cls-2" cx="125.25" cy="152.62" r="1"/>
  <circle class="cls-2" cx="126.24" cy="150.48" r="1"/>
  <circle class="cls-2" cx="125.92" cy="153.66" r="1"/>
  <circle class="cls-2" cx="130.38" cy="145.34" r="1"/>
  <circle class="cls-2" cx="130.61" cy="143.45" r="1"/>
  <circle class="cls-2" cx="127.06" cy="151.59" r="1"/>
  <circle class="cls-2" cx="127.56" cy="148.16" r="1"/>
  <circle class="cls-2" cx="126.31" cy="148.15" r="1"/>
  <circle class="cls-2" cx="127.49" cy="145.79" r="1"/>
  <circle class="cls-2" cx="151.28" cy="147.81" r="1"/>
  <circle class="cls-2" cx="150.51" cy="150.04" r="1"/>
  <circle class="cls-2" cx="147.58" cy="155.08" r="1"/>
  <circle class="cls-2" cx="148.18" cy="152.92" r="1"/>
  <circle class="cls-2" cx="149.17" cy="150.78" r="1"/>
  <circle class="cls-2" cx="148.84" cy="153.96" r="1"/>
  <circle class="cls-2" cx="149.99" cy="151.89" r="1"/>
  <circle class="cls-2" cx="150.49" cy="148.46" r="1"/>
  <circle class="cls-2" cx="149.23" cy="148.45" r="1"/>
  <circle class="cls-2" cx="149.37" cy="154.78" r="1"/>
  <circle class="cls-2" cx="152.22" cy="148.13" r="1"/>
  <circle class="cls-2" cx="163.81" cy="151.42" r="1.51"/>
  <circle class="cls-2" cx="163.72" cy="153.79" r="1.51"/>
  <circle class="cls-2" cx="166.12" cy="149.35" r="1.51"/>
  <circle class="cls-2" cx="165.87" cy="152.72" r="1.51"/>
  <circle class="cls-2" cx="165.14" cy="155.97" r="1.51"/>
  <circle class="cls-2" cx="163.32" cy="149.88" r="1.51"/>
  <circle class="cls-2" cx="136.4" cy="149.48" r="1.51"/>
  <circle class="cls-2" cx="135.73" cy="151.76" r="1.51"/>
  <circle class="cls-2" cx="139.15" cy="148.04" r="1.51"/>
  <circle class="cls-2" cx="138.07" cy="151.24" r="1.51"/>
  <circle class="cls-2" cx="136.57" cy="154.22" r="1.51"/>
  <circle class="cls-2" cx="136.31" cy="147.86" r="1.51"/>
  <circle class="cls-2" cx="135.96" cy="156.82" r="1.51"/>
  <circle class="cls-2" cx="137.67" cy="155.78" r="1.51"/>
  <circle class="cls-2" cx="139.02" cy="134.09" r="1.36"/>
  <circle class="cls-2" cx="137.61" cy="132.79" r="1.36"/>
  <circle class="cls-2" cx="137.76" cy="136.38" r="1.36"/>
  <circle class="cls-2" cx="137.85" cy="131.15" r="1.36"/>
  <circle class="cls-2" cx="135.28" cy="134.66" r="1.36"/>
  <circle class="cls-2" cx="134.85" cy="131.96" r="1.36"/>
  <circle class="cls-2" cx="135.38" cy="136.97" r="1.36"/>
  <circle class="cls-2" cx="132.88" cy="133.13" r="1.36"/>
  <circle class="cls-2" cx="131.64" cy="135.91" r="1.36"/>
  <circle class="cls-2" cx="130.22" cy="134.61" r="1.36"/>
  <circle class="cls-2" cx="130.46" cy="132.97" r="1.36"/>
  <circle class="cls-2" cx="134.34" cy="135.52" r="1.36"/>
  <circle class="cls-2" cx="127.89" cy="136.48" r="1.36"/>
  <circle class="cls-2" cx="127.46" cy="133.78" r="1.36"/>
  <circle class="cls-2" cx="127.51" cy="133.86" r="1.36"/>
  <circle class="cls-2" cx="126.77" cy="136.81" r="1.36"/>
  <circle class="cls-2" cx="125.15" cy="135.77" r="1.36"/>
  <circle class="cls-2" cx="125.1" cy="134.11" r="1.36"/>
  <circle class="cls-2" cx="122.28" cy="136.06" r="1"/>
  <circle class="cls-2" cx="123.08" cy="138.28" r="1"/>
  <circle class="cls-2" cx="123.97" cy="144.04" r="1"/>
  <circle class="cls-2" cx="123.08" cy="141.99" r="1"/>
  <circle class="cls-2" cx="122.51" cy="139.7" r="1"/>
  <circle class="cls-2" cx="124.24" cy="142.39" r="1"/>
  <circle class="cls-2" cx="125.29" cy="145.79" r="1"/>
  <circle class="cls-2" cx="132.99" cy="136.46" r="1"/>
  <circle class="cls-2" cx="130.92" cy="137.59" r="1"/>
  <circle class="cls-2" cx="125.37" cy="139.36" r="1"/>
  <circle class="cls-2" cx="127.26" cy="138.16" r="1"/>
  <circle class="cls-2" cx="129.43" cy="137.24" r="1"/>
  <circle class="cls-2" cx="127.05" cy="139.38" r="1"/>
  <circle class="cls-2" cx="123.84" cy="140.94" r="1"/>
  <circle class="cls-2" cx="125.31" cy="142.9" r="1"/>
  <circle class="cls-2" cx="127.61" cy="143.43" r="1"/>
  <circle class="cls-2" cx="132.92" cy="145.83" r="1"/>
  <circle class="cls-2" cx="130.71" cy="145.46" r="1"/>
  <circle class="cls-2" cx="128.48" cy="144.69" r="1"/>
  <circle class="cls-2" cx="131.68" cy="144.69" r="1"/>
  <circle class="cls-2" cx="135.11" cy="145.67" r="1"/>
  <circle class="cls-2" cx="132.96" cy="136.35" r="1"/>
  <circle class="cls-2" cx="141.82" cy="143.22" r="1"/>
  <circle class="cls-2" cx="140.18" cy="144.62" r="1.36"/>
  <circle class="cls-2" cx="139.85" cy="142.73" r="1.36"/>
  <circle class="cls-2" cx="137.78" cy="145.66" r="1.36"/>
  <circle class="cls-2" cx="141.05" cy="141.58" r="1.36"/>
  <circle class="cls-2" cx="136.86" cy="142.78" r="1.36"/>
  <circle class="cls-2" cx="138.18" cy="140.38" r="1.36"/>
  <circle class="cls-2" cx="135.53" cy="144.67" r="1.36"/>
  <circle class="cls-2" cx="135.9" cy="140.1" r="1.36"/>
  <circle class="cls-2" cx="133.22" cy="141.54" r="1.36"/>
  <circle class="cls-2" cx="132.89" cy="139.64" r="1.36"/>
  <circle class="cls-2" cx="134.09" cy="138.49" r="1.36"/>
  <circle class="cls-2" cx="135.6" cy="142.89" r="1.36"/>
  <circle class="cls-2" cx="129.91" cy="139.7" r="1.36"/>
  <circle class="cls-2" cx="133.95" cy="142.8" r="1"/>
  <circle class="cls-2" cx="131.62" cy="142.43" r="1"/>
  <circle class="cls-2" cx="130.66" cy="141.24" r="1"/>
  <circle class="cls-2" cx="137.73" cy="132.95" r="1"/>
  <circle class="cls-2" cx="140.98" cy="134.87" r="1.36"/>
  <circle class="cls-2" cx="140.94" cy="133.21" r="1.36"/>
  <circle class="cls-2" cx="138.12" cy="135.16" r="1"/>
  <circle class="cls-2" cx="138.92" cy="137.38" r="1"/>
  <circle class="cls-2" cx="138.91" cy="141.09" r="1"/>
  <circle class="cls-2" cx="138.34" cy="138.8" r="1"/>
  <circle class="cls-2" cx="141.2" cy="138.46" r="1"/>
  <circle class="cls-2" cx="139.68" cy="140.04" r="1"/>
  <circle class="cls-2" cx="126.12" cy="141.68" r="1"/>
  <circle class="cls-2" cx="128.01" cy="140.48" r="1"/>
  <circle class="cls-2" cx="127.8" cy="141.7" r="1"/>
  <circle class="cls-2" cx="144.13" cy="138.53" r="1.36"/>
  <circle class="cls-2" cx="142.42" cy="139.81" r="1.36"/>
  <circle class="cls-2" cx="140.26" cy="133.16" r="1"/>
  <circle class="cls-2" cx="141.69" cy="131.47" r="1"/>
  <circle class="cls-2" cx="144.63" cy="131.54" r="1.36"/>
  <circle class="cls-2" cx="142.91" cy="132.82" r="1.36"/>
  <circle class="cls-2" cx="147.42" cy="131.37" r="1"/>
  <circle class="cls-2" cx="140.77" cy="131.76" r="1"/>
  <circle class="cls-2" cx="146.18" cy="133.06" r="1"/>
  <circle class="cls-2" cx="149.11" cy="133.13" r="1.36"/>
  <circle class="cls-2" cx="151.9" cy="132.96" r="1"/>
  <circle class="cls-2" cx="146.92" cy="138.36" r="1"/>
  <circle class="cls-2" cx="142.03" cy="144.91" r="1.36"/>
  <circle class="cls-2" cx="143.9" cy="142.51" r="1.36"/>
  <circle class="cls-2" cx="144.97" cy="144.11" r="1.36"/>
  <circle class="cls-2" cx="144.34" cy="145.65" r="1.36"/>
  <circle class="cls-2" cx="147.67" cy="142.85" r="1.36"/>
  <circle class="cls-2" cx="147.44" cy="145.58" r="1.36"/>
  <circle class="cls-2" cx="149.64" cy="144.92" r="1.36"/>
  <circle class="cls-2" cx="152.57" cy="144.12" r="1.36"/>
  <circle class="cls-2" cx="151.95" cy="145.65" r="1.36"/>
  <circle class="cls-2" cx="148.79" cy="142.24" r="1.36"/>
  <circle class="cls-2" cx="155.05" cy="145.59" r="1.36"/>
  <circle class="cls-2" cx="155.02" cy="145.5" r="1.36"/>
  <circle class="cls-2" cx="157.78" cy="144.21" r="1.36"/>
  <circle class="cls-2" cx="157.42" cy="145.83" r="1.36"/>
  <circle class="cls-2" cx="160.25" cy="145.24" r="1.36"/>
  <circle class="cls-2" cx="160.95" cy="143.71" r="1.36"/>
  <circle class="cls-2" cx="148.35" cy="136.67" r="1"/>
  <circle class="cls-2" cx="151.28" cy="136.74" r="1.36"/>
  <circle class="cls-2" cx="149.57" cy="138.02" r="1.36"/>
  <circle class="cls-2" cx="154.07" cy="136.57" r="1"/>
  <circle class="cls-2" cx="141.7" cy="137.06" r="1"/>
  <circle class="cls-2" cx="144.63" cy="137.13" r="1.36"/>
  <circle class="cls-2" cx="147.42" cy="136.96" r="1"/>
  <circle class="cls-2" cx="152.84" cy="138.27" r="1"/>
  <circle class="cls-2" cx="155.77" cy="138.34" r="1.36"/>
  <circle class="cls-2" cx="158.56" cy="138.17" r="1"/>
  <circle class="cls-2" cx="157.27" cy="142.96" r="1.36"/>
  <circle class="cls-2" cx="157.28" cy="143.05" r="1.36"/>
  <circle class="cls-2" cx="154.27" cy="143.51" r="1.36"/>
  <circle class="cls-2" cx="155.07" cy="142.05" r="1.36"/>
  <circle class="cls-2" cx="162.98" cy="146.67" r="1.36"/>
  <circle class="cls-2" cx="165.72" cy="146.72" r="1.36"/>
  <circle class="cls-2" cx="164.91" cy="144.58" r="1.36"/>
  <circle class="cls-2" cx="163.91" cy="141.7" r="1.36"/>
  <circle class="cls-2" cx="165.49" cy="142.22" r="1.36"/>
  <circle class="cls-2" cx="162.29" cy="145.6" r="1.36"/>
  <circle class="cls-2" cx="165.22" cy="139.13" r="1.36"/>
  <circle class="cls-2" cx="165.13" cy="139.17" r="1.36"/>
  <circle class="cls-2" cx="163.66" cy="136.5" r="1.36"/>
  <circle class="cls-2" cx="165.3" cy="136.75" r="1.36"/>
  <circle class="cls-2" cx="164.51" cy="133.96" r="1.36"/>
  <circle class="cls-2" cx="162.95" cy="133.37" r="1.36"/>
  <circle class="cls-2" cx="151.96" cy="133.55" r="1"/>
  <circle class="cls-2" cx="153.39" cy="131.86" r="1"/>
  <circle class="cls-2" cx="156.32" cy="131.93" r="1.36"/>
  <circle class="cls-2" cx="154.61" cy="133.21" r="1.36"/>
  <circle class="cls-2" cx="159.11" cy="131.76" r="1"/>
  <circle class="cls-2" cx="152.46" cy="132.15" r="1"/>
  <circle class="cls-2" cx="157.87" cy="133.45" r="1"/>
  <circle class="cls-2" cx="160.81" cy="133.52" r="1.36"/>
  <circle class="cls-2" cx="163.59" cy="133.35" r="1"/>
  <circle class="cls-2" cx="150.5" cy="131.03" r="1"/>
  <circle class="cls-2" cx="151.93" cy="129.34" r="1"/>
  <circle class="cls-2" cx="154.86" cy="129.41" r="1.36"/>
  <circle class="cls-2" cx="153.15" cy="130.69" r="1.36"/>
  <circle class="cls-2" cx="157.65" cy="129.24" r="1"/>
  <circle class="cls-2" cx="151" cy="129.63" r="1"/>
  <circle class="cls-2" cx="156.42" cy="130.93" r="1"/>
  <circle class="cls-2" cx="159.35" cy="131" r="1.36"/>
  <circle class="cls-2" cx="162.14" cy="130.83" r="1"/>
  <circle class="cls-2" cx="163.77" cy="130.94" r="1"/>
  <circle class="cls-2" cx="165.68" cy="132.06" r="1"/>
  <circle class="cls-2" cx="165.96" cy="134.85" r="1.36"/>
  <circle class="cls-2" cx="160.44" cy="136.88" r="1.36"/>
  <circle class="cls-2" cx="166.76" cy="137.68" r="1"/>
  <circle class="cls-2" cx="165.24" cy="131.2" r="1"/>
  <circle class="cls-2" cx="164.88" cy="136.76" r="1"/>
  <circle class="cls-2" cx="157.56" cy="136.98" r="1.36"/>
  <circle class="cls-2" cx="165.96" cy="142.37" r="1"/>
  <circle class="cls-2" cx="142.97" cy="123.7" r="1"/>
  <circle class="cls-2" cx="143.51" cy="125.72" r="1"/>
  <circle class="cls-2" cx="145.28" cy="122.62" r="1"/>
  <circle class="cls-2" cx="143.39" cy="121.72" r="1"/>
  <circle class="cls-2" cx="151.96" cy="141.67" r="1"/>
  <circle class="cls-2" cx="150.73" cy="143.37" r="1"/>
  <circle class="cls-2" cx="154.16" cy="142.77" r="1.36"/>
  <circle class="cls-2" cx="151.96" cy="141.77" r="1.36"/>
  <circle class="cls-2" cx="160.8" cy="141.41" r="1.36"/>
  <circle class="cls-2" cx="179.45" cy="124.84" r="1"/>
  <circle class="cls-2" cx="179.11" cy="127.23" r="1"/>
  <circle class="cls-2" cx="179.61" cy="129.41" r="1"/>
  <circle class="cls-2" cx="179.75" cy="131.76" r="1"/>
  <circle class="cls-2" cx="178.39" cy="139.87" r="1"/>
  <circle class="cls-2" cx="178.97" cy="137.54" r="1"/>
  <circle class="cls-2" cx="178.7" cy="135.32" r="1"/>
  <circle class="cls-2" cx="178.8" cy="132.96" r="1"/>
  <circle class="cls-2" cx="179.71" cy="136.03" r="1"/>
  <circle class="cls-2" cx="180.65" cy="126.63" r="1"/>
  <circle class="cls-2" cx="179.75" cy="139.59" r="1"/>
  <circle class="cls-2" cx="180.15" cy="124.8" r="1"/>
  <circle class="cls-2" cx="179.98" cy="133.67" r="1"/>
  <circle class="cls-2" cx="179.13" cy="130.31" r="1"/>
  <circle class="cls-2" cx="178.16" cy="107.16" r="1"/>
  <circle class="cls-2" cx="178.08" cy="109.56" r="1"/>
  <circle class="cls-2" cx="178.81" cy="111.68" r="1"/>
  <circle class="cls-2" cx="179.21" cy="114" r="1"/>
  <circle class="cls-2" cx="178.75" cy="122.21" r="1"/>
  <circle class="cls-2" cx="179.07" cy="119.83" r="1"/>
  <circle class="cls-2" cx="178.56" cy="117.65" r="1"/>
  <circle class="cls-2" cx="178.39" cy="115.3" r="1"/>
  <circle class="cls-2" cx="179.64" cy="118.25" r="1"/>
  <circle class="cls-2" cx="179.55" cy="108.81" r="1"/>
  <circle class="cls-2" cx="180.07" cy="121.79" r="1"/>
  <circle class="cls-2" cx="178.84" cy="107.04" r="1"/>
  <circle class="cls-2" cx="179.65" cy="115.88" r="1"/>
  <circle class="cls-2" cx="178.43" cy="112.63" r="1"/>
  <circle class="cls-2" cx="177.55" cy="98.81" r="1"/>
  <circle class="cls-2" cx="175.16" cy="98.52" r="1"/>
  <circle class="cls-2" cx="172.99" cy="99.07" r="1"/>
  <circle class="cls-2" cx="170.64" cy="99.27" r="1"/>
  <circle class="cls-2" cx="162.5" cy="98.1" r="1"/>
  <circle class="cls-2" cx="164.85" cy="98.63" r="1"/>
  <circle class="cls-2" cx="167.07" cy="98.3" r="1"/>
  <circle class="cls-2" cx="169.42" cy="98.34" r="1"/>
  <circle class="cls-2" cx="166.38" cy="99.33" r="1"/>
  <circle class="cls-2" cx="175.79" cy="100.05" r="1"/>
  <circle class="cls-2" cx="162.82" cy="99.45" r="1"/>
  <circle class="cls-2" cx="177.62" cy="99.5" r="1"/>
  <circle class="cls-2" cx="168.74" cy="99.54" r="1"/>
  <circle class="cls-2" cx="172.08" cy="98.61" r="1"/>
  <circle class="cls-2" cx="157.81" cy="91.54" r="1"/>
  <circle class="cls-2" cx="157.51" cy="93.92" r="1"/>
  <circle class="cls-2" cx="158.04" cy="96.1" r="1"/>
  <circle class="cls-2" cx="156.95" cy="95.51" r="1"/>
  <circle class="cls-2" cx="156.5" cy="91.98" r="1"/>
  <circle class="cls-2" cx="178.88" cy="104.51" r="1"/>
  <circle class="cls-2" cx="179.31" cy="102.14" r="1"/>
  <circle class="cls-2" cx="178.89" cy="99.94" r="1"/>
  <circle class="cls-2" cx="179.95" cy="100.58" r="1"/>
  <circle class="cls-2" cx="180.21" cy="104.14" r="1"/>
  <circle class="cls-2" cx="157.12" cy="97.43" r="1"/>
  <circle class="cls-2" cx="157.43" cy="98.78" r="1"/>
  <circle class="cls-2" cx="164.52" cy="99.62" r="1"/>
  <circle class="cls-2" cx="158.72" cy="98.98" r="1"/>
  <circle class="cls-2" cx="160.94" cy="98.65" r="1"/>
  <circle class="cls-2" cx="163.29" cy="98.69" r="1"/>
  <circle class="cls-2" cx="160.25" cy="99.68" r="1"/>
  <circle class="cls-2" cx="162.61" cy="99.89" r="1"/>
  <circle class="cls-2" cx="184.91" cy="155.7" r="1"/>
  <circle class="cls-2" cx="182.78" cy="156.39" r="1"/>
  <circle class="cls-2" cx="180.45" cy="156.74" r="1"/>
  <circle class="cls-2" cx="174.62" cy="156.47" r="1"/>
  <circle class="cls-2" cx="176.81" cy="156" r="1"/>
  <circle class="cls-2" cx="179.17" cy="155.89" r="1"/>
  <circle class="cls-2" cx="176.19" cy="157.07" r="1"/>
  <circle class="cls-2" cx="185.63" cy="157.18" r="1"/>
  <circle class="cls-2" cx="178.56" cy="157.13" r="1"/>
  <circle class="cls-2" cx="181.84" cy="155.99" r="1"/>
  <circle class="cls-2" cx="172.53" cy="157.42" r="1"/>
  <circle class="cls-2" cx="173.72" cy="156.07" r="1"/>
  <circle class="cls-2" cx="183.04" cy="157.47" r="1"/>
  <circle class="cls-2" cx="182.04" cy="152.28" r="1"/>
  <circle class="cls-2" cx="183.04" cy="106.37" r="1"/>
  <circle class="cls-2" cx="117.66" cy="99.98" r="1"/>
  <circle class="cls-2" cx="150.26" cy="87.64" r="1"/>
  <circle class="cls-2" cx="149.03" cy="89.71" r="1"/>
  <circle class="cls-2" cx="150.68" cy="89.75" r="1"/>
  <circle class="cls-2" cx="150.92" cy="87.86" r="1"/>
  <circle class="cls-2" cx="147.8" cy="90.2" r="1"/>
  <circle class="cls-2" cx="155.68" cy="81.38" r="1.36"/>
  <circle class="cls-2" cx="151.94" cy="80.32" r="1.36"/>
  <circle class="cls-2" cx="148.2" cy="80.89" r="1.36"/>
  <circle class="cls-2" cx="147.07" cy="81.22" r="1.36"/>
  <circle class="cls-2" cx="145.45" cy="80.18" r="1.36"/>
  <circle class="cls-2" cx="143.39" cy="82.69" r="1"/>
  <circle class="cls-2" cx="144.27" cy="88.45" r="1"/>
  <circle class="cls-2" cx="143.38" cy="86.4" r="1"/>
  <circle class="cls-2" cx="142.81" cy="84.11" r="1"/>
  <circle class="cls-2" cx="144.55" cy="86.79" r="1"/>
  <circle class="cls-2" cx="145.59" cy="90.2" r="1"/>
  <circle class="cls-2" cx="153.29" cy="80.87" r="1"/>
  <circle class="cls-2" cx="151.22" cy="82" r="1"/>
  <circle class="cls-2" cx="145.67" cy="83.77" r="1"/>
  <circle class="cls-2" cx="147.56" cy="82.57" r="1"/>
  <circle class="cls-2" cx="149.73" cy="81.65" r="1"/>
  <circle class="cls-2" cx="147.35" cy="83.79" r="1"/>
  <circle class="cls-2" cx="144.15" cy="85.35" r="1"/>
  <circle class="cls-2" cx="145.62" cy="87.31" r="1"/>
  <circle class="cls-2" cx="147.91" cy="87.84" r="1"/>
  <circle class="cls-2" cx="153.23" cy="90.24" r="1"/>
  <circle class="cls-2" cx="151.02" cy="89.87" r="1"/>
  <circle class="cls-2" cx="148.79" cy="89.1" r="1"/>
  <circle class="cls-2" cx="151.99" cy="89.1" r="1"/>
  <circle class="cls-2" cx="155.42" cy="90.08" r="1"/>
  <circle class="cls-2" cx="153.27" cy="80.76" r="1"/>
  <circle class="cls-2" cx="153.53" cy="85.95" r="1.36"/>
  <circle class="cls-2" cx="153.2" cy="84.05" r="1.36"/>
  <circle class="cls-2" cx="154.39" cy="82.9" r="1.36"/>
  <circle class="cls-2" cx="150.21" cy="84.11" r="1.36"/>
  <circle class="cls-2" cx="154.26" cy="87.21" r="1"/>
  <circle class="cls-2" cx="151.93" cy="86.84" r="1"/>
  <circle class="cls-2" cx="150.96" cy="85.65" r="1"/>
  <circle class="cls-2" cx="146.42" cy="86.09" r="1"/>
  <circle class="cls-2" cx="148.31" cy="84.89" r="1"/>
  <circle class="cls-2" cx="148.1" cy="86.11" r="1"/>
  <circle class="cls-2" cx="137.96" cy="44.39" r="1"/>
  <circle class="cls-2" cx="163.11" cy="87.2" r="1"/>
  <circle class="cls-2" cx="164.34" cy="89.27" r="1"/>
  <circle class="cls-2" cx="162.68" cy="89.31" r="1"/>
  <circle class="cls-2" cx="162.45" cy="87.42" r="1"/>
  <circle class="cls-2" cx="165.57" cy="89.76" r="1"/>
  <circle class="cls-2" cx="157.68" cy="80.94" r="1.36"/>
  <circle class="cls-2" cx="161.42" cy="79.88" r="1.36"/>
  <circle class="cls-2" cx="165.17" cy="80.45" r="1.36"/>
  <circle class="cls-2" cx="166.3" cy="80.77" r="1.36"/>
  <circle class="cls-2" cx="167.92" cy="79.74" r="1.36"/>
  <circle class="cls-2" cx="169.98" cy="82.25" r="1"/>
  <circle class="cls-2" cx="169.1" cy="88.01" r="1"/>
  <circle class="cls-2" cx="169.99" cy="85.96" r="1"/>
  <circle class="cls-2" cx="170.56" cy="83.67" r="1"/>
  <circle class="cls-2" cx="168.82" cy="86.35" r="1"/>
  <circle class="cls-2" cx="167.77" cy="89.76" r="1"/>
  <circle class="cls-2" cx="160.08" cy="80.43" r="1"/>
  <circle class="cls-2" cx="162.14" cy="81.56" r="1"/>
  <circle class="cls-2" cx="167.7" cy="83.33" r="1"/>
  <circle class="cls-2" cx="165.8" cy="82.13" r="1"/>
  <circle class="cls-2" cx="163.63" cy="81.21" r="1"/>
  <circle class="cls-2" cx="166.02" cy="83.35" r="1"/>
  <circle class="cls-2" cx="169.22" cy="84.91" r="1"/>
  <circle class="cls-2" cx="167.75" cy="86.87" r="1"/>
  <circle class="cls-2" cx="165.45" cy="87.4" r="1"/>
  <circle class="cls-2" cx="160.14" cy="89.8" r="1"/>
  <circle class="cls-2" cx="162.35" cy="89.43" r="1"/>
  <circle class="cls-2" cx="164.58" cy="88.66" r="1"/>
  <circle class="cls-2" cx="161.38" cy="88.66" r="1"/>
  <circle class="cls-2" cx="157.95" cy="89.64" r="1"/>
  <circle class="cls-2" cx="160.1" cy="80.32" r="1"/>
  <circle class="cls-2" cx="159.84" cy="85.51" r="1.36"/>
  <circle class="cls-2" cx="160.17" cy="83.61" r="1.36"/>
  <circle class="cls-2" cx="158.97" cy="82.46" r="1.36"/>
  <circle class="cls-2" cx="163.15" cy="83.67" r="1.36"/>
  <circle class="cls-2" cx="159.11" cy="86.77" r="1"/>
  <circle class="cls-2" cx="161.44" cy="86.4" r="1"/>
  <circle class="cls-2" cx="162.4" cy="85.21" r="1"/>
  <circle class="cls-2" cx="166.95" cy="85.65" r="1"/>
  <circle class="cls-2" cx="165.05" cy="84.45" r="1"/>
  <circle class="cls-2" cx="165.26" cy="85.67" r="1"/>
  <circle class="cls-2" cx="149.76" cy="74.71" r="1"/>
  <circle class="cls-2" cx="149.38" cy="77.09" r="1"/>
  <circle class="cls-2" cx="148.78" cy="78.66" r="1"/>
  <circle class="cls-2" cx="148.44" cy="75.11" r="1"/>
  <circle class="cls-2" cx="151.49" cy="70.14" r="1"/>
  <circle class="cls-2" cx="152.01" cy="69.02" r="1"/>
  <circle class="cls-2" cx="150.11" cy="69.3" r="1"/>
  <circle class="cls-2" cx="148.78" cy="69.7" r="1"/>
  <circle class="cls-2" cx="148.37" cy="76.82" r="1"/>
  <circle class="cls-2" cx="148.66" cy="70.99" r="1"/>
  <circle class="cls-2" cx="149.12" cy="73.19" r="1"/>
  <circle class="cls-2" cx="149.22" cy="75.54" r="1"/>
  <circle class="cls-2" cx="148.06" cy="72.56" r="1"/>
  <circle class="cls-2" cx="147.99" cy="74.93" r="1"/>
  <circle class="cls-2" cx="163" cy="74.59" r="1"/>
  <circle class="cls-2" cx="163.38" cy="76.97" r="1"/>
  <circle class="cls-2" cx="163.98" cy="78.54" r="1"/>
  <circle class="cls-2" cx="164.33" cy="74.99" r="1"/>
  <circle class="cls-2" cx="161.28" cy="70.01" r="1"/>
  <circle class="cls-2" cx="160.76" cy="68.89" r="1"/>
  <circle class="cls-2" cx="162.66" cy="69.18" r="1"/>
  <circle class="cls-2" cx="163.99" cy="69.57" r="1"/>
  <circle class="cls-2" cx="164.39" cy="76.69" r="1"/>
  <circle class="cls-2" cx="164.11" cy="70.87" r="1"/>
  <circle class="cls-2" cx="163.65" cy="73.06" r="1"/>
  <circle class="cls-2" cx="163.54" cy="75.42" r="1"/>
  <circle class="cls-2" cx="164.71" cy="72.44" r="1"/>
  <circle class="cls-2" cx="164.78" cy="74.81" r="1"/>
  <circle class="cls-2" cx="152.11" cy="76.27" r="1.36"/>
  <circle class="cls-2" cx="155.04" cy="77.09" r="1.36"/>
  <circle class="cls-2" cx="153.96" cy="78.68" r="1.36"/>
  <circle class="cls-2" cx="152.3" cy="78.68" r="1.36"/>
  <circle class="cls-2" cx="154.26" cy="74.47" r="1.36"/>
  <circle class="cls-2" cx="153.54" cy="81.53" r="1.36"/>
  <circle class="cls-2" cx="154.99" cy="83.31" r="1.36"/>
  <circle class="cls-2" cx="151.3" cy="73.87" r="1.51"/>
  <circle class="cls-2" cx="150.25" cy="72.05" r="1.36"/>
  <circle class="cls-2" cx="152.97" cy="70.77" r="1.51"/>
  <circle class="cls-2" cx="152.95" cy="73.95" r="1.51"/>
  <circle class="cls-2" cx="158.79" cy="76.34" r="1.36"/>
  <circle class="cls-2" cx="161.55" cy="77.61" r="1.36"/>
  <circle class="cls-2" cx="160.23" cy="79.01" r="1.36"/>
  <circle class="cls-2" cx="158.6" cy="78.75" r="1.36"/>
  <circle class="cls-2" cx="161.2" cy="74.9" r="1.36"/>
  <circle class="cls-2" cx="159.37" cy="81.76" r="1.36"/>
  <circle class="cls-2" cx="160.52" cy="83.74" r="1.36"/>
  <circle class="cls-2" cx="158.37" cy="73.84" r="1.51"/>
  <circle class="cls-2" cx="157.62" cy="71.88" r="1.36"/>
  <circle class="cls-2" cx="160.51" cy="71.05" r="1.51"/>
  <circle class="cls-2" cx="159.98" cy="74.18" r="1.51"/>
  <circle class="cls-2" cx="149.78" cy="86.84" r="1"/>
  <circle class="cls-2" cx="166.04" cy="90.61" r="1"/>
  <circle class="cls-2" cx="160.57" cy="88.71" r="1"/>
  <circle class="cls-2" cx="163.87" cy="87.16" r="1"/>
  <circle class="cls-2" cx="166.24" cy="76.75" r="1"/>
  <circle class="cls-2" cx="153.77" cy="80.63" r="1.36"/>
  <circle class="cls-2" cx="156.46" cy="85.26" r="1.36"/>
  <circle class="cls-2" cx="161.99" cy="85.69" r="1.36"/>
  <circle class="cls-2" cx="161.45" cy="76.12" r="1.51"/>
  <circle class="cls-2" cx="155.11" cy="68.93" r="1.36"/>
  <circle class="cls-2" cx="157.83" cy="70.29" r="1.36"/>
  <circle class="cls-2" cx="156.47" cy="71.65" r="1.36"/>
  <circle class="cls-2" cx="154.84" cy="71.34" r="1.36"/>
  <circle class="cls-2" cx="158.24" cy="74.06" r="1.36"/>
  <circle class="cls-2" cx="155.52" cy="74.37" r="1.36"/>
  <circle class="cls-2" cx="156.6" cy="76.39" r="1.36"/>
  <circle class="cls-2" cx="159.06" cy="75.03" r="1.36"/>
  <circle class="cls-2" cx="183.04" cy="118.05" r="1"/>
  <circle class="cls-2" cx="156.32" cy="87.71" r="1"/>
  <circle class="cls-2" cx="22.01" cy="177.15" r="1.36"/>
  <circle class="cls-2" cx="24.42" cy="175.29" r="1.36"/>
  <circle class="cls-2" cx="25.05" cy="177.1" r="1.36"/>
  <circle class="cls-2" cx="24.06" cy="178.43" r="1.36"/>
  <circle class="cls-2" cx="27.99" cy="176.56" r="1.36"/>
  <circle class="cls-2" cx="27.09" cy="179.14" r="1.36"/>
  <circle class="cls-2" cx="27.08" cy="179.05" r="1.36"/>
  <circle class="cls-2" cx="30.07" cy="178.49" r="1.36"/>
  <circle class="cls-2" cx="29.32" cy="179.97" r="1.36"/>
  <circle class="cls-2" cx="20.46" cy="183.78" r="1.36"/>
  <circle class="cls-2" cx="23" cy="182.12" r="1.36"/>
  <circle class="cls-2" cx="23.49" cy="183.98" r="1.36"/>
  <circle class="cls-2" cx="22.4" cy="185.23" r="1.36"/>
  <circle class="cls-2" cx="26.46" cy="183.66" r="1.36"/>
  <circle class="cls-2" cx="25.36" cy="186.17" r="1.36"/>
  <circle class="cls-2" cx="25.36" cy="186.07" r="1.36"/>
  <circle class="cls-2" cx="28.38" cy="185.75" r="1.36"/>
  <circle class="cls-2" cx="27.52" cy="187.16" r="1.36"/>
  <circle class="cls-2" cx="24.58" cy="193.54" r="1.36"/>
  <circle class="cls-2" cx="21.67" cy="194.44" r="1.36"/>
  <circle class="cls-2" cx="21.72" cy="192.51" r="1.36"/>
  <circle class="cls-2" cx="23.11" cy="191.62" r="1.36"/>
  <circle class="cls-2" cx="18.77" cy="191.99" r="1.36"/>
  <circle class="cls-2" cx="20.53" cy="189.89" r="1.36"/>
  <circle class="cls-2" cx="20.5" cy="189.98" r="1.36"/>
  <circle class="cls-2" cx="17.51" cy="189.46" r="1.36"/>
  <circle class="cls-2" cx="18.73" cy="188.33" r="1.36"/>
  <circle class="cls-2" cx="18.05" cy="178.41" r="1"/>
  <circle class="cls-2" cx="18.85" cy="180.63" r="1"/>
  <circle class="cls-2" cx="18.28" cy="182.05" r="1"/>
  <circle class="cls-2" cx="19.61" cy="182.4" r="1"/>
  <circle class="cls-2" cx="17.85" cy="179.42" r="1"/>
  <circle class="cls-2" cx="28.74" cy="190.68" r="1"/>
  <circle class="cls-2" cx="29.43" cy="188.43" r="1"/>
  <circle class="cls-2" cx="30.75" cy="187.64" r="1"/>
  <circle class="cls-2" cx="29.89" cy="186.56" r="1"/>
  <circle class="cls-2" cx="29.51" cy="190.01" r="1"/>
  <circle class="cls-2" cx="23.57" cy="176.77" r="1"/>
  <circle class="cls-2" cx="22.13" cy="178.63" r="1"/>
  <circle class="cls-2" cx="20.62" cy="178.9" r="1"/>
  <circle class="cls-2" cx="21.04" cy="180.22" r="1"/>
  <circle class="cls-2" cx="22.61" cy="177.13" r="1"/>
  <circle class="cls-2" cx="26.75" cy="193.29" r="1"/>
  <circle class="cls-2" cx="28.43" cy="192.06" r="1"/>
  <circle class="cls-2" cx="26.38" cy="190.92" r="1"/>
  <circle class="cls-2" cx="30.36" cy="190.92" r="1"/>
  <circle class="cls-2" cx="21.58" cy="175.25" r="1"/>
  <circle class="cls-2" cx="20" cy="176.6" r="1"/>
  <circle class="cls-2" cx="22.12" cy="177.59" r="1"/>
  <circle class="cls-2" cx="18.15" cy="177.87" r="1"/>
  <circle class="cls-2" cx="27.81" cy="189.13" r="1"/>
  <circle class="cls-2" cx="26.56" cy="190.99" r="1"/>
  <circle class="cls-2" cx="24.95" cy="192.71" r="1"/>
  <circle class="cls-2" cx="25.58" cy="191.26" r="1"/>
  <circle class="cls-2" cx="30.9" cy="180.41" r="1"/>
  <circle class="cls-2" cx="89.42" cy="155.65" r="1.36"/>
  <circle class="cls-2" cx="93.23" cy="148.23" r="1.36"/>
  <circle class="cls-2" cx="134.89" cy="161.78" r="1.51"/>
  <circle class="cls-2" cx="132.16" cy="121.62" r="1.36"/>
</svg>